HIERARCHY
ROOT root
{
	OFFSET 0.000000 0.000000 0.000000
	CHANNELS 6 Xposition Yposition Zposition Zrotation Yrotation Xrotation
	JOINT lhip
	{
		OFFSET 0.058581 -0.082280 -0.017664
		CHANNELS 3 Zrotation Yrotation Xrotation
		JOINT lknee
		{
			OFFSET 0.043451 -0.386469 0.008037
			CHANNELS 3 Zrotation Yrotation Xrotation
			JOINT lankle
			{
				OFFSET -0.014790 -0.426874 -0.037428
				CHANNELS 3 Zrotation Yrotation Xrotation
				JOINT ltoe
				{
					OFFSET 0.041054 -0.060286 0.122042
					CHANNELS 3 Zrotation Yrotation Xrotation
					End Site
					{
						OFFSET 0.000000 0.000000 0.000000
					}
				}
			}
		}
	}
	JOINT rhip
	{
		OFFSET -0.060310 -0.090513 -0.013543
		CHANNELS 3 Zrotation Yrotation Xrotation
		JOINT rknee
		{
			OFFSET -0.043257 -0.383688 -0.004843
			CHANNELS 3 Zrotation Yrotation Xrotation
			JOINT rankle
			{
				OFFSET 0.019056 -0.420046 -0.034562
				CHANNELS 3 Zrotation Yrotation Xrotation
				JOINT rtoe
				{
					OFFSET -0.034840 -0.062106 0.130323
					CHANNELS 3 Zrotation Yrotation Xrotation
					End Site
					{
						OFFSET 0.000000 0.000000 0.000000
					}
				}
			}
		}
	}
	JOINT lowerback
	{
		OFFSET 0.004439 0.124404 -0.038385
		CHANNELS 3 Zrotation Yrotation Xrotation
		JOINT upperback
		{
			OFFSET 0.004488 0.137956 0.026820
			CHANNELS 3 Zrotation Yrotation Xrotation
			JOINT chest
			{
				OFFSET -0.002265 0.056032 0.002855
				CHANNELS 3 Zrotation Yrotation Xrotation
				JOINT lowerneck
				{
					OFFSET -0.013390 0.211636 -0.033468
					CHANNELS 3 Zrotation Yrotation Xrotation
					JOINT upperneck
					{
						OFFSET 0.010113 0.088937 0.050410
						CHANNELS 3 Zrotation Yrotation Xrotation
						End Site
						{
							OFFSET 0.000000 0.000000 0.000000
						}
					}
				}
				JOINT lclavicle
				{
					OFFSET 0.071702 0.114000 -0.018898
					CHANNELS 3 Zrotation Yrotation Xrotation
					JOINT lshoulder
					{
						OFFSET 0.122921 0.045205 -0.019046
						CHANNELS 3 Zrotation Yrotation Xrotation
						JOINT lelbow
						{
							OFFSET 0.255332 -0.015649 -0.022946
							CHANNELS 3 Zrotation Yrotation Xrotation
							JOINT lwrist
							{
								OFFSET 0.265709 0.012698 -0.007375
								CHANNELS 3 Zrotation Yrotation Xrotation
								End Site
								{
									OFFSET 0.000000 0.000000 0.000000
								}
							}
						}
					}
				}
				JOINT rclavicle
				{
					OFFSET -0.082954 0.112472 -0.023707
					CHANNELS 3 Zrotation Yrotation Xrotation
					JOINT rshoulder
					{
						OFFSET -0.113228 0.046853 -0.008472
						CHANNELS 3 Zrotation Yrotation Xrotation
						JOINT relbow
						{
							OFFSET -0.260127 -0.014369 -0.031269
							CHANNELS 3 Zrotation Yrotation Xrotation
							JOINT rwrist
							{
								OFFSET -0.269108 0.006794 -0.006027
								CHANNELS 3 Zrotation Yrotation Xrotation
								End Site
								{
									OFFSET 0.000000 0.000000 0.000000
								}
							}
						}
					}
				}
			}
		}
	}
}
MOTION
Frames: 14
Frame Time: 0.033333
1.472318 0.629948 0.990335 -90.046478 -0.339927 90.069366 2.888418 2.755564 -2.576425 -3.182752 -5.862578 4.500612 8.290509 14.560958 -20.176122 0.000000 -0.000000 0.000000 -1.154914 -1.145901 -3.715524 3.200203 -1.364805 12.842917 0.637498 -7.495990 -13.833105 0.000000 -0.000000 0.000000 6.694627 0.844090 3.655763 0.782405 -1.231237 4.132940 -1.239554 2.506103 -5.119827 0.383136 33.481121 6.052488 2.180543 34.171700 2.590885 -31.255731 -2.576385 1.557042 -55.801967 0.764116 13.455005 10.981508 -32.027346 -2.151430 -1.153225 -18.805096 -5.232083 26.095812 2.153384 8.543385 54.837786 -5.302325 9.584693 -14.375445 24.328214 -9.341916 8.136865 15.785716 -8.521809 
1.472335 0.634104 0.990472 -89.608760 -0.388480 89.994954 2.827665 1.913442 -4.633184 -3.223561 -5.793120 8.642940 7.978272 15.298159 -21.355618 0.000000 -0.000000 0.000000 -0.939581 -1.317481 -3.294000 3.393580 -1.074818 12.374636 0.087825 -7.957247 -14.045018 0.000000 -0.000000 0.000000 7.455582 0.753851 4.167866 0.622465 -1.203685 3.352320 -1.353027 2.684468 -4.598263 -0.122215 32.008267 5.471544 2.416731 33.489700 3.939128 -31.481447 -2.036556 1.334537 -55.739795 0.486514 13.437108 11.780449 -32.283889 -2.258687 -0.036360 -18.617818 -5.708014 25.924141 1.897085 8.416514 54.760632 -5.916752 9.560611 -14.198210 23.321592 -8.796183 7.712302 15.674918 -9.090281 
1.472672 0.636617 0.988653 -88.874829 0.073644 92.516637 2.708606 1.516160 -11.194757 -3.775003 -8.041041 16.103567 6.357831 18.447641 -25.072622 0.000000 -0.000000 0.000000 -0.772967 -1.123526 -5.484986 5.145572 0.392368 11.469522 -0.866362 -10.513177 -13.773439 0.000000 -0.000000 0.000000 9.176975 2.156023 -0.823445 0.912637 -2.610560 5.782814 -1.248658 3.287946 -4.756787 -2.674004 30.373972 7.444900 1.814342 31.497621 1.506536 -35.303388 -4.435512 1.830947 -53.815304 2.666498 14.386391 15.421040 -31.879642 -6.701970 -0.237376 -23.072084 -5.835716 24.105071 3.654098 6.210463 55.045342 -9.609724 5.369691 -11.882475 22.693770 -7.681060 5.105774 16.014613 -6.505642 
1.473895 0.640887 0.986389 -88.462269 0.636687 92.588963 3.253959 0.519311 -15.785572 -4.466787 -7.020277 24.655861 5.932621 19.090528 -26.268671 0.000000 -0.000000 0.000000 -0.361902 -1.183692 -4.872860 5.993019 0.598850 10.449623 -1.540211 -10.989489 -13.598234 0.000000 -0.000000 0.000000 11.147060 2.335294 0.248209 0.975064 -2.715458 4.686242 -1.537172 3.365983 -4.976734 -2.915600 27.035441 7.950994 1.472614 28.466948 2.941386 -36.626764 -3.473019 1.397142 -53.230199 2.759549 14.125912 15.837240 -31.784333 -7.818412 -1.756654 -23.271147 -4.246102 23.802084 3.615865 5.843623 53.450122 -10.420487 4.407506 -10.180525 21.524665 -7.008374 6.611115 15.917821 -5.111578 
1.474168 0.642927 0.984334 -88.253834 1.179514 92.518725 3.809856 0.093848 -18.455854 -4.759750 -5.991919 29.682958 5.780903 19.169883 -26.206280 0.000000 -0.000000 0.000000 0.080404 -1.246202 -4.455211 6.429356 0.686857 9.957975 -2.047167 -11.168971 -13.572684 0.000000 -0.000000 0.000000 12.427918 2.251608 1.220919 1.059025 -2.743674 3.832930 -1.654252 3.333776 -4.983260 -2.938643 24.819704 7.924830 1.147772 26.426036 4.067233 -37.371708 -2.853367 0.986677 -53.015379 2.928939 13.958133 15.810440 -31.682091 -8.445788 -2.655132 -23.316804 -3.596551 23.764674 3.757092 5.524551 52.139247 -10.557985 4.432214 -9.281793 20.799795 -6.558082 7.428954 15.845883 -4.165473 
1.473526 0.644965 0.981982 -88.257680 1.852789 92.375468 4.505810 -0.340791 -21.535440 -4.896720 -4.664299 35.348416 5.645554 19.049934 -25.417838 0.000000 -0.000000 0.000000 0.588253 -1.236629 -3.802957 6.913627 0.727368 9.185854 -2.611406 -11.253764 -13.421486 0.000000 -0.000000 0.000000 13.716125 2.186891 2.375807 1.326934 -2.812114 3.321015 -1.658101 3.227804 -5.106266 -3.221663 21.467447 7.724019 0.539770 23.594178 5.258421 -38.451187 -2.144249 0.632920 -52.626819 3.126197 13.689870 15.487449 -31.575349 -9.239029 -3.786571 -23.360725 -2.900998 24.102196 4.084381 4.924338 49.863688 -10.204430 4.601759 -8.276857 19.820456 -5.857081 8.343975 15.756635 -2.205467 
1.471292 0.646242 0.980788 -88.547603 2.306518 92.291015 5.104403 -0.822866 -23.892887 -5.604065 -4.143341 39.129207 5.146988 17.816006 -24.885192 0.000000 -0.000000 0.000000 0.855935 -1.156226 -2.892272 7.285905 0.802859 7.949687 -2.842313 -11.083669 -13.020710 0.000000 -0.000000 0.000000 14.226696 2.207549 3.101725 1.795677 -3.042565 3.308547 -1.452976 3.082626 -5.155127 -3.791492 18.080394 7.766541 -0.013770 20.907212 5.699898 -39.235997 -1.736872 0.814772 -52.551823 3.263850 13.463496 15.246382 -31.370875 -9.659131 -4.529714 -23.394052 -2.486288 24.667498 4.631974 4.582914 47.716609 -8.993186 4.562163 -7.839059 18.855021 -5.292834 8.495038 15.719024 -0.355218 
1.467390 0.647154 0.980657 -89.044517 2.570192 92.476811 5.588397 -1.138968 -25.817420 -6.787053 -4.144337 40.529997 4.423016 15.848922 -24.645882 0.000000 -0.000000 0.000000 1.008097 -1.141409 -2.118454 7.476769 1.005263 6.595684 -2.792369 -10.726351 -12.614031 0.000000 -0.000000 0.000000 14.030078 2.333173 3.495466 2.374485 -3.380054 3.143838 -1.118337 2.905713 -5.086954 -4.166324 15.141494 8.092587 -0.243998 18.390926 6.006174 -39.356851 -1.419825 1.211718 -52.974609 3.615506 13.602669 14.975792 -31.063644 -9.022176 -4.551994 -23.416969 -2.447506 25.280841 5.173475 4.387904 46.192643 -7.366988 4.680146 -8.004706 18.197161 -5.338920 7.399354 15.858253 0.481200 
1.462015 0.647949 0.980506 -89.662290 2.780696 92.975972 5.944302 -0.979520 -27.608213 -6.944324 -3.658002 39.881749 4.027927 15.454753 -23.955472 0.000000 -0.000000 0.000000 1.192733 -1.210744 -1.830864 7.506618 1.348071 5.666702 -2.595763 -10.385263 -12.403670 0.000000 -0.000000 0.000000 13.455425 2.550054 3.504589 2.940047 -3.730823 3.066786 -0.778825 2.702289 -5.061351 -4.322813 12.584059 8.308776 -0.233681 16.005114 6.580629 -38.894197 -1.175222 1.705478 -53.521892 4.129590 13.887959 14.367424 -31.106888 -7.051253 -4.046636 -23.260665 -2.633084 25.739053 5.551207 4.155589 45.427277 -5.639952 4.787965 -8.455719 18.157070 -6.034985 5.465047 16.028723 0.246277 
1.453978 0.648542 0.979660 -90.556952 2.965968 93.694817 6.343307 -0.128658 -29.421110 -5.854413 -2.516856 36.884487 4.332722 15.738881 -23.095359 0.000000 -0.000000 0.000000 1.355113 -1.483413 -2.347161 7.471295 1.675023 6.112904 -2.148817 -9.755071 -12.868685 0.000000 -0.000000 0.000000 12.493341 2.729675 3.548112 3.380363 -4.032611 3.176648 -0.459838 2.494118 -5.219104 -4.144271 10.220482 8.310060 -0.033480 13.252341 7.593170 -38.109115 -0.899572 2.183981 -53.659623 4.748764 14.179312 13.528650 -31.857730 -3.979950 -4.708757 -23.399089 -2.656370 26.176432 5.811261 3.804795 45.477263 -3.402763 4.613981 -9.367938 19.142411 -7.769708 3.765113 16.197663 -0.955175 
1.447115 0.648641 0.978014 -91.456643 3.085930 94.205893 6.774128 0.971821 -30.399733 -4.815501 -1.389624 33.257154 4.507031 15.155306 -22.566239 0.000000 -0.000000 0.000000 1.423384 -1.563102 -3.535258 7.376389 1.739295 8.276767 -1.602684 -9.105650 -14.001772 0.000000 -0.000000 0.000000 11.689019 2.628091 3.978712 3.442198 -4.047221 3.283446 -0.346615 2.438714 -5.272277 -3.542442 9.209689 7.909364 -0.059768 11.321086 8.162580 -37.268005 -0.605280 2.110598 -53.522263 5.083327 14.520546 13.153578 -32.922577 -1.872992 -6.118056 -23.723455 -2.556621 26.487439 6.000588 3.591937 46.187161 -1.609758 4.631958 -10.437410 20.881111 -9.618509 3.112453 16.262288 -2.726883 
1.439390 0.648168 0.975352 -92.439096 3.238676 94.511334 7.268454 2.055327 -31.072349 -4.154413 -0.655293 29.100652 4.870445 14.875251 -21.816509 0.000000 -0.000000 0.000000 1.573452 -1.366144 -5.055139 7.175816 1.714822 11.522393 -1.226619 -8.771344 -15.773991 0.000000 -0.000000 0.000000 10.923257 2.436074 4.620293 3.306599 -3.973756 3.630129 -0.339814 2.453450 -5.147093 -3.042120 8.611556 7.211205 0.091538 9.785679 8.336770 -36.587145 -0.565060 1.750265 -52.898756 5.312990 14.803566 12.894996 -34.429495 -0.545275 -6.530160 -23.700113 -2.635310 26.943846 6.428969 3.349641 46.834198 -0.167769 4.964230 -11.323427 23.353480 -11.276900 2.361604 16.198725 -4.848882 
1.429894 0.646791 0.971769 -93.266270 3.332458 94.595523 7.741907 2.826013 -31.470730 -3.733312 -0.457654 24.745390 5.165461 15.117351 -20.820691 0.000000 -0.000000 0.000000 1.661033 -1.127071 -6.246281 6.927801 1.621545 14.791893 -1.022532 -8.706263 -17.774685 0.000000 -0.000000 0.000000 10.130461 2.274024 5.291899 2.992513 -3.936576 4.193296 -0.419308 2.465923 -5.007151 -2.633447 8.333145 6.533241 0.412652 8.452449 8.150696 -35.959420 -0.727671 1.359221 -51.980553 5.262359 14.989295 12.667484 -36.060818 0.252463 -6.263930 -23.792273 -3.038531 27.344924 7.043989 3.269966 47.627820 0.953076 5.517477 -12.171442 25.950868 -12.267576 1.492963 16.352446 -6.894065 
1.418819 0.644441 0.967489 -93.864188 3.382144 94.636196 8.243750 3.424223 -31.925823 -3.323001 -0.361194 20.924535 5.262537 14.981624 -19.757020 0.000000 -0.000000 0.000000 1.561697 -0.980778 -7.003296 6.776401 1.592386 17.684377 -0.866417 -8.629887 -19.548820 0.000000 -0.000000 0.000000 9.409013 2.171861 5.937250 2.505241 -3.966393 4.681787 -0.602032 2.513758 -4.957599 -2.236446 8.281322 6.193258 0.863582 7.183406 7.713207 -35.476946 -1.111598 0.960275 -50.801019 5.107157 15.098454 12.631330 -37.612645 0.475566 -5.941269 -23.928736 -3.079997 27.601868 7.758565 3.417808 48.531791 1.568322 6.210140 -12.971484 28.590734 -12.644868 0.837419 16.745509 -8.425975 
